<?xml version="1.0" standalone="no"?>
<!DOCTYPE svg PUBLIC "-//W3C//DTD SVG 20010904//EN"
 "http://www.w3.org/TR/2001/REC-SVG-20010904/DTD/svg10.dtd">
<svg version="1.0" xmlns="http://www.w3.org/2000/svg"
 width="1600.000000pt" height="400.000000pt" viewBox="0 0 1600.000000 400.000000"
 preserveAspectRatio="xMidYMid meet">

<g transform="translate(0.000000,400.000000) scale(0.100000,-0.100000)"
fill="#000000" stroke="none">
<path d="M0 2000 l0 -2000 8000 0 8000 0 0 2000 0 2000 -8000 0 -8000 0 0
-2000z m1169 1158 c22 -73 125 -258 187 -338 62 -78 132 -160 159 -185 177
-163 293 -251 490 -375 251 -157 577 -306 820 -375 103 -28 105 -43 14 -105
-220 -151 -644 -338 -1224 -540 -205 -72 -295 -99 -295 -90 0 4 37 30 83 59
45 29 159 101 252 162 94 60 214 137 267 172 54 34 98 65 98 69 0 4 -9 9 -20
13 -62 20 -214 136 -325 249 -140 142 -243 288 -344 488 -136 269 -193 481
-190 704 1 74 5 134 9 134 4 0 12 -19 19 -42z m12762 -538 c35 -10 85 -33 111
-49 97 -61 175 -211 186 -353 l5 -68 -97 0 -96 0 0 43 c0 104 -57 223 -128
268 -38 24 -57 29 -107 29 -52 0 -69 -5 -107 -30 -127 -84 -196 -334 -169
-608 23 -229 94 -382 204 -439 40 -20 123 -21 164 0 69 36 129 142 139 248 12
111 11 110 106 107 l83 -3 -1 -71 c0 -93 -42 -222 -92 -289 -85 -112 -195
-162 -339 -153 -87 6 -148 28 -217 80 -48 36 -122 130 -155 195 -37 74 -71
211 -79 324 -31 400 103 696 353 775 61 19 164 17 236 -6z m-3321 -6 c113 -26
318 -149 305 -182 -2 -7 -12 -38 -21 -70 -9 -31 -18 -59 -20 -61 -2 -2 -20 10
-41 26 -115 89 -199 123 -301 123 -125 0 -214 -67 -228 -172 -19 -135 46 -197
289 -275 61 -19 139 -49 171 -65 81 -41 168 -129 189 -192 40 -118 3 -276 -87
-368 -79 -81 -177 -118 -316 -118 -107 0 -175 17 -318 82 -108 49 -113 52
-108 77 3 14 11 54 17 89 15 73 7 73 142 6 142 -72 243 -89 340 -60 97 29 136
79 144 186 8 119 -47 173 -244 235 -158 50 -231 86 -296 145 -88 80 -126 189
-107 305 25 151 127 256 282 290 83 18 130 18 208 -1z m-6062 -76 l-3 -73
-172 -3 -173 -2 0 -595 0 -595 -95 0 -95 0 0 595 0 595 -172 2 -173 3 -3 73
-3 72 446 0 446 0 -3 -72z m744 61 c163 -35 248 -142 256 -325 5 -112 -9 -186
-51 -255 -23 -39 -44 -59 -74 -74 -23 -11 -42 -23 -43 -26 0 -4 14 -9 32 -13
47 -9 94 -45 120 -91 22 -38 23 -50 26 -292 l3 -253 -96 0 -95 0 2 233 c3 218
2 234 -17 267 -39 66 -68 75 -267 78 l-178 4 0 -291 0 -291 -95 0 -95 0 0 670
0 670 260 0 c154 0 281 -5 312 -11z m1146 -331 c162 -602 249 -932 257 -966
l7 -33 -93 3 -93 3 -33 115 c-18 63 -38 132 -44 153 l-10 37 -229 0 -229 0
-20 -67 c-11 -38 -30 -107 -42 -155 l-23 -88 -99 0 c-54 0 -96 4 -93 8 2 4 23
75 45 157 168 631 311 1167 311 1171 0 2 67 4 148 4 l149 0 91 -342z m506 320
c19 -91 251 -1055 276 -1146 11 -43 35 -56 44 -24 11 39 89 365 111 467 21 95
157 658 171 708 5 15 18 17 100 17 52 0 94 -3 94 -7 0 -5 -49 -192 -109 -418
-60 -225 -132 -500 -161 -610 -28 -110 -58 -224 -67 -252 l-14 -53 -147 0
-147 0 -23 88 c-12 48 -45 173 -72 277 -111 427 -250 964 -250 969 0 3 43 6
95 6 90 0 95 -1 99 -22z m2096 -578 l0 -600 260 0 260 0 0 -70 0 -70 -355 0
-355 0 0 670 0 670 95 0 95 0 0 -600z m2293 492 c22 -59 86 -236 143 -393 57
-158 104 -292 104 -300 0 -35 28 36 161 404 l143 397 98 0 98 0 -26 -57 c-14
-32 -35 -80 -46 -108 -11 -27 -89 -214 -175 -413 l-155 -364 3 -196 4 -197
-93 -3 -92 -3 0 200 0 200 -161 378 c-180 421 -229 540 -229 554 0 5 41 9 93
9 l92 0 38 -108z m1139 71 c9 -21 61 -148 116 -283 55 -135 130 -319 167 -410
38 -91 78 -193 90 -226 57 -153 54 -171 55 419 l0 537 95 0 95 0 0 -670 0
-670 -109 0 -109 0 -14 38 c-107 279 -415 1042 -420 1042 -5 0 -8 -243 -8
-540 l0 -540 -90 0 -90 0 0 670 0 670 103 0 104 0 15 -37z m-3852 -63 l0 -70
-260 0 -260 0 0 -215 0 -215 240 0 240 0 0 -70 0 -70 -240 0 -240 0 0 -230 0
-230 260 0 260 0 0 -70 0 -70 -355 0 -355 0 0 655 0 655 355 0 355 0 0 -70z
m6240 -375 l0 -135 135 0 135 0 0 -70 0 -70 -135 0 -134 0 -3 -137 -3 -138
-67 -3 -68 -3 0 141 0 140 -135 0 -135 0 0 70 0 70 135 0 135 0 0 135 0 135
70 0 70 0 0 -135z"/>
<path d="M4910 2232 l0 -242 153 1 c90 0 165 5 185 12 84 31 129 125 119 246
-7 79 -25 127 -64 164 -42 39 -78 47 -245 54 l-148 6 0 -241z"/>
<path d="M6177 2463 c-3 -10 -20 -83 -38 -163 -17 -80 -54 -238 -80 -352 -27
-114 -49 -212 -49 -218 0 -6 64 -10 190 -10 146 0 190 3 190 13 -1 6 -40 176
-88 377 -68 285 -91 366 -104 368 -9 2 -19 -5 -21 -15z"/>
</g>
</svg>
